<?xml version="1.0" encoding="UTF-8" standalone="no"?>
<svg
   xmlns:dc="http://purl.org/dc/elements/1.1/"
   xmlns:cc="http://creativecommons.org/ns#"
   xmlns:rdf="http://www.w3.org/1999/02/22-rdf-syntax-ns#"
   xmlns:svg="http://www.w3.org/2000/svg"
   xmlns="http://www.w3.org/2000/svg"
   xmlns:sodipodi="http://sodipodi.sourceforge.net/DTD/sodipodi-0.dtd"
   xmlns:inkscape="http://www.inkscape.org/namespaces/inkscape"
   viewBox="0 0 25 25"
   version="1.1"
   id="svg75"
   sodipodi:docname="brain.svg"
   width="25"
   height="25"
   inkscape:version="0.92.2 (unknown)">
  <metadata
     id="metadata81">
    <rdf:RDF>
      <cc:Work
         rdf:about="">
        <dc:format>image/svg+xml</dc:format>
        <dc:type
           rdf:resource="http://purl.org/dc/dcmitype/StillImage" />
        <dc:title></dc:title>
      </cc:Work>
    </rdf:RDF>
  </metadata>
  <defs
     id="defs79" />
  <sodipodi:namedview
     pagecolor="#ffffff"
     bordercolor="#666666"
     borderopacity="1"
     objecttolerance="10"
     gridtolerance="10"
     guidetolerance="10"
     inkscape:pageopacity="0"
     inkscape:pageshadow="2"
     inkscape:window-width="1920"
     inkscape:window-height="1022"
     id="namedview77"
     showgrid="false"
     fit-margin-top="0"
     fit-margin-left="0"
     fit-margin-right="0"
     fit-margin-bottom="0"
     inkscape:zoom="22.627417"
     inkscape:cx="5.3153744"
     inkscape:cy="11.429292"
     inkscape:window-x="0"
     inkscape:window-y="34"
     inkscape:window-maximized="1"
     inkscape:current-layer="svg75" />
  <rect
     style="fill:#999999;stroke-width:0.5;stroke-miterlimit:4;stroke-dasharray:none"
     id="rect3439"
     width="25"
     height="25"
     x="0"
     y="0" />
  <g
     data-name="Layer 2"
     id="Layer_2"
     transform="matrix(0.21902152,0,0,0.21918179,1.5566423,1.5626708)"
     style="stroke-width:0.81827879">
    <path
       d="m 25.743023,44.739884 c 0.74,4.13 2.856861,6.679492 5.820334,7.042733 m -1.500334,-8.052733 c -1.224456,-0.386641 -2.553688,-0.256608 -3.68,0.36 -0.249835,0.177418 -0.466477,0.397444 -0.64,0.65 v 0 c -2.09,-1.42 -5.52,-2.49 -8.71,0.17"
       id="path66"
       inkscape:connector-curvature="0"
       style="fill:none;stroke:#000000;stroke-width:2.28204584;stroke-miterlimit:4;stroke-dasharray:none;stroke-opacity:1"
       sodipodi:nodetypes="ccccccc" />
    <path
       d="m 29.262907,38.995814 c -0.84,-2 -0.77,-3.6 0.23,-4.69 2.25,-2.46 8.41,-0.91 10.47,-0.3 2.600117,-1.555178 4.941919,-2.670975 7.03773,-3.452179 9.898137,-3.689488 14.30945,0.08412 14.53227,0.282179 m -2.67,8.77 h -0.64 c -4.632764,-0.807273 -8.406578,-5.712011 -11.22227,-9.052179"
       id="path68"
       inkscape:connector-curvature="0"
       style="fill:none;stroke:#000000;stroke-width:2.28204584;stroke-miterlimit:4;stroke-dasharray:none;stroke-opacity:1"
       sodipodi:nodetypes="cccscccc" />
    <path
       d="m 64.795161,24.789034 1.421932,-1.878802 c 0.568871,-0.702533 1.031735,-0.96225 1.921062,-1.124312 3,-0.58 6.350812,2.628126 6.730812,2.958126 m -9.291874,6.626186 c 0.789659,-2.361526 0.52488,-4.567662 -0.781932,-6.581198 -0.447391,-0.689339 -1.016912,-1.356104 -1.708068,-1.998802 -1.356135,-1.248461 -2.910738,-2.262333 -4.6,-3"
       id="path70"
       inkscape:connector-curvature="0"
       style="fill:none;stroke:#000000;stroke-width:2.28204584;stroke-miterlimit:4;stroke-dasharray:none;stroke-opacity:1"
       sodipodi:nodetypes="cccccscc" />
    <path
       d="M 40.13614,72.955505 C 34.411192,77.618283 31.644591,78.354303 24.21,77.61 h 0.03 c -11.48,-1.32 -13,-19 -13,-19.12 -0.02233,-0.483057 -0.220717,-2.935073 0.17,-3.22 M 45.6,76.32 43.57,78.61 C 40.949894,81.041445 38.732307,83.873341 37,87 L 29.86,88 40.13614,72.955505 M 54.34,70.02 c -0.52,0.85 -2.56,4.5 -8.74,6.3 l 0.03,-0.02 c -1.68,0.49 -3,0.33 -3.9,-0.5 C 40.993332,75.153307 40.481977,74.144532 40.13614,72.955505 39.251988,69.915693 39.449657,65.697759 39.73,63.34 l 0.06,-0.47 -0.83,-2.13 M 7.22,47.04 7.0337182,43.242225 C 6.7637182,41.692225 6.68,40.18 8.49,39.1 c 1.59,-1 2.4,-3.12 3.26,-5.42 0.86,-2.3 1.81,-4.84 3.54,-5.83 l 2.11,-1.22 c -0.0995,3.856069 -0.321221,8.712894 2.89,10.85 M 17.4,26.63 v 0 c 1.208392,-4.54617 4.961589,-7.967052 9.6,-8.75 l 2.39,-0.51 C 28.53,20.25 25,26.76 29,30.2 M 32.89,21 C 31.802832,19.890289 30.470461,19.051136 29,18.55 v 0 c 0.15,-0.51 0.29,-0.92 0.39,-1.18 v -0.06 c 1.81,-1.29 5,-3.13 6.75,-3.07 h 0.4 l 0.3,-0.26 c 0.18,-0.16 4.45,-3.77 9.05,-1.45 v 0 c 0.16,0.3 0.64,1.63 -0.53,5.71 v 0 c -3.93,2.22 -3.35,6.37 -2.45,8.33 m 8.46,-3.03 c -0.09844,-2.626233 -3.728665,-4.588581 -6.01,-5.3 m 0.53,-5.71 2.04,-0.22 c 2.76,-0.74 9.6,-2.12 11.58,1.76 l 0.39,0.76 0.82,-0.27 c 1.94,-0.65 3.83,-0.68 3.95,-0.36 l 0.24,0.68 h 0.72 c 1.74,0 5.45,0.39 5.87,1.93 l 0.19,0.71 h 0.74 c 0.09,0 8.63,0.35 9.07,5.68 l 0.06,0.65 0.62,0.21 c 0.28,0.1 6.81,2.42 6.81,8.83 v 0.55 l 0.46,0.29 c 1.895104,2.550936 2.357913,3.233584 2.39,6.44 m -2.06,4.85 c 0.44309,-1.709627 1.137311,-3.344079 2.06,-4.85 v 0 c 1.360868,2.188388 1.584215,4.898335 0.6,7.28 l -0.09,0.25 v 0.26 c 0,0 0.26,1.82 -1.75,3.89 L 90.53,51.8 c -0.514156,-0.542114 -1.157618,-0.944708 -1.87,-1.17 -2,-0.62 -4.4,0 -7.25,1.94 m 9.19,-0.72 c -3.100802,4.610606 -6.078679,6.72774 -9.55,7.91 l -0.3,0.11 -0.19,0.24 c 0,0 -2.42,3 -9.64,1.66 h -0.11 c -0.234157,-1.138079 -0.765498,-2.19386 -1.54,-3.06 h 0.22 c 1.504256,-0.02895 2.976686,-0.438337 4.28,-1.19 2.51,-1.5 4,-4.3 4.51,-8.34 v -0.2 c 1.581393,-0.499247 2.868936,-1.65913 3.53,-3.18 0.89,-2.19 0.11,-4.65 -0.47,-6 l 0.2,-0.1 c 1.915199,-1.308697 3.158457,-3.392982 3.4,-5.7 m -9.59,-5.62 c -2.47,5.76 3.39,9.78 5.99,11.42 m -3.06,9.18 C 77.898476,46.875298 76.402424,43.692329 75,42.53 c -2.46,-1.76 -6,-2 -10.38,-0.56 m 4.65,16.74 C 67.823578,57.161541 68.443846,57.03221 66.25,56.4 h -0.16 c -2.441284,-1.022657 -5.045389,-1.601723 -7.69,-1.71 -1,-4.56 -2.8,-7.53 -5.34,-8.83 -1.631811,-0.815618 -3.528152,-0.920568 -5.24,-0.29 -4.66,-0.18 -10,-7.19 -10,-7.26 m 10,7.26 c -2.648166,2.306276 -4.21629,6.694009 -4.21,8.94 m 27.2,7.26 c 0.04962,1.221133 -1.994851,3.958299 -2.65,4.99 -3.162933,0.174037 -6.334179,-0.12253 -9.41,-0.88 v -0.15 c 0.03682,-1.87849 -0.370934,-3.73908 -1.19,-5.43 m 1.19,5.58 c -3.458574,-1.336976 -6.817272,-4.752858 -7.98,-6.63 m 17.39,7.51 c -3.13,1.49 -10.31,3.49 -13.82,3.26 -3.28,-0.22 -6,-2.91 -8.47,-5.28 -2.47,-2.37 -4.52,-4.42 -6.91,-4 C 37.8,58.88 34.13,54.5 25.6,55.65 23.9,55.24 15.41,53.33 11.41,55.27 v 0 c -1,-0.89 -5,-4.82 -4.19,-8.23 h 0.06 c 1.26,-0.34 3.53,-1.69 5.5,-6.88"
       id="path72"
       inkscape:connector-curvature="0"
       style="fill:none;stroke:#000000;stroke-width:2.28204584;stroke-miterlimit:4;stroke-dasharray:none;stroke-opacity:1"
       sodipodi:nodetypes="ccccccccccccccsccccccsccccccccccccccccccccccccccccccsccscccscccccccccccccccccccccccccccccccccccccccccccccccccccsccccccc" />
  </g>
</svg>
