<?xml version="1.0" encoding="UTF-8" standalone="no"?>
<svg
   xmlns:dc="http://purl.org/dc/elements/1.1/"
   xmlns:cc="http://creativecommons.org/ns#"
   xmlns:rdf="http://www.w3.org/1999/02/22-rdf-syntax-ns#"
   xmlns:svg="http://www.w3.org/2000/svg"
   xmlns="http://www.w3.org/2000/svg"
   xmlns:sodipodi="http://sodipodi.sourceforge.net/DTD/sodipodi-0.dtd"
   xmlns:inkscape="http://www.inkscape.org/namespaces/inkscape"
   width="25"
   height="25"
   id="svg4299"
   version="1.1"
   inkscape:version="0.91 r13725"
   sodipodi:docname="ear.svg">
  <metadata
     id="metadata4320">
    <rdf:RDF>
      <cc:Work
         rdf:about="">
        <dc:format>image/svg+xml</dc:format>
        <dc:type
           rdf:resource="http://purl.org/dc/dcmitype/StillImage" />
        <dc:title></dc:title>
      </cc:Work>
    </rdf:RDF>
  </metadata>
  <defs
     id="defs4318" />
  <sodipodi:namedview
     pagecolor="#ffffff"
     bordercolor="#666666"
     borderopacity="1"
     objecttolerance="10"
     gridtolerance="10"
     guidetolerance="10"
     inkscape:pageopacity="0"
     inkscape:pageshadow="2"
     inkscape:window-width="1920"
     inkscape:window-height="1022"
     id="namedview4316"
     showgrid="false"
     fit-margin-top="0"
     fit-margin-left="0"
     fit-margin-right="0"
     fit-margin-bottom="0"
     inkscape:zoom="13.350176"
     inkscape:cx="12.737474"
     inkscape:cy="13.705056"
     inkscape:window-x="0"
     inkscape:window-y="34"
     inkscape:window-maximized="1"
     inkscape:current-layer="g4308" />
  <g
     id="g4303"
     transform="translate(-1.6949161,-9.1101694)">
    <title
       id="title4305">background</title>
    <rect
       id="canvas_background"
       height="402"
       width="582"
       y="-1"
       x="-1"
       style="fill:none" />
  </g>
  <g
     id="g4308"
     transform="translate(-1.6949161,-9.1101694)">
    <title
       id="title4310">Layer 1</title>
    <rect
       style="fill:#999999"
       id="rect3439"
       width="25"
       height="25"
       x="1.6949161"
       y="9.1101694" />
    <g
       id="g4892"
       transform="translate(-0.01148938,0.6431199)">
      <path
         sodipodi:nodetypes="sccccsscss"
         style="fill:none;stroke:#000000;stroke-width:0.5;stroke-miterlimit:4;stroke-dasharray:none"
         inkscape:connector-curvature="0"
         d="m 11.700209,29.810877 c -2.6600206,0 -2.9303636,-2.554884 -2.9323376,-2.582397 l 0,-0.01769 -0.06512,-9.909015 0,-0.01769 c 0.01184,-0.0511 0.986655,-5.160863 5.6061726,-5.160863 4.619518,0 5.361483,5.119592 5.367403,5.17069 0.0059,0.0511 0.572261,4.066194 -3.177029,6.16906 -1.843072,1.041605 -1.993043,3.384235 -1.995017,3.399958 -0.002,0.01572 -0.134184,2.947942 -2.804073,2.947942 z"
         id="svg_1" />
      <path
         sodipodi:nodetypes="csscccscc"
         style="fill:none;stroke:#000000;stroke-width:0.5;stroke-miterlimit:4;stroke-dasharray:none"
         inkscape:connector-curvature="0"
         d="m 11.423947,22.814428 c 0.155665,-7.56e-4 2.105521,-0.13364 2.105521,-1.906336 0,-1.772696 -2.004883,-1.802175 -2.085789,-1.802175 l -0.197331,0 0,-1.784487 c 0.0052,-0.630408 0.24818,-1.235828 0.680793,-1.69605 0.536739,-0.554213 1.339877,-0.837215 2.383757,-0.837215 0.974816,0 1.72862,0.279072 2.239707,0.83132 0.789323,0.843111 0.688686,2.055698 0.688686,2.055698"
         id="svg_2" />
    </g>
  </g>
</svg>
