<?xml version="1.0" encoding="UTF-8" standalone="no"?>
<svg
   xmlns:dc="http://purl.org/dc/elements/1.1/"
   xmlns:cc="http://creativecommons.org/ns#"
   xmlns:rdf="http://www.w3.org/1999/02/22-rdf-syntax-ns#"
   xmlns:svg="http://www.w3.org/2000/svg"
   xmlns="http://www.w3.org/2000/svg"
   xmlns:sodipodi="http://sodipodi.sourceforge.net/DTD/sodipodi-0.dtd"
   xmlns:inkscape="http://www.inkscape.org/namespaces/inkscape"
   enable-background="new 0 0 32.646 19"
   height="25"
   id="Capa_1"
   version="1.1"
   viewBox="0 0 25 14.393939"
   width="25"
   xml:space="preserve"
   inkscape:version="0.91 r13725"
   sodipodi:docname="eye.svg"><metadata
     id="metadata3437"><rdf:RDF><cc:Work
         rdf:about=""><dc:format>image/svg+xml</dc:format><dc:type
           rdf:resource="http://purl.org/dc/dcmitype/StillImage" /><dc:title></dc:title></cc:Work></rdf:RDF></metadata><defs
     id="defs3435" /><sodipodi:namedview
     pagecolor="#ffffff"
     bordercolor="#666666"
     borderopacity="1"
     objecttolerance="10"
     gridtolerance="10"
     guidetolerance="10"
     inkscape:pageopacity="0"
     inkscape:pageshadow="2"
     inkscape:window-width="958"
     inkscape:window-height="1021"
     id="namedview3433"
     showgrid="false"
     inkscape:zoom="12.787879"
     inkscape:cx="9.5984062"
     inkscape:cy="5.9827295"
     inkscape:window-x="0"
     inkscape:window-y="34"
     inkscape:window-maximized="0"
     inkscape:current-layer="layer2"
     fit-margin-top="0"
     fit-margin-left="0"
     fit-margin-right="0"
     fit-margin-bottom="0"
     inkscape:snap-bbox="false"
     inkscape:snap-global="true"
     inkscape:snap-nodes="false"
     inkscape:snap-others="false"
     inkscape:snap-grids="true"
     inkscape:snap-to-guides="true" /><g
     inkscape:groupmode="layer"
     id="layer2"
     inkscape:label="Background"
     style="display:inline;opacity:1"
     transform="translate(-2.7369668,-4.0663507)"><rect
       style="display:inline;opacity:1;fill:#999999"
       id="rect3439"
       width="25"
       height="25"
       x="2.7369668"
       y="-1.2366798" /></g><g
     inkscape:groupmode="layer"
     id="layer1"
     inkscape:label="Layer 1"
     style="display:inline;opacity:1"
     transform="translate(-2.7369668,-4.0663507)"><g
       id="g3427"
       transform="matrix(0.58551962,0,0,0.57813669,5.6786492,5.7710217)"
       style="fill:none;stroke:#000000;stroke-opacity:1"><path
         d="m 16.326,3.773 c -3.162,0.02 -5.72,2.589 -5.72,5.756 0,3.167 2.558,5.735 5.72,5.756 3.17,-0.021 5.718,-2.59 5.718,-5.756 C 22.043,6.362 19.496,3.793 16.326,3.773 Z"
         id="path3431"
         inkscape:connector-curvature="0"
         style="fill:none;stroke:#000000;stroke-width:0.85937756;stroke-miterlimit:4;stroke-dasharray:none;stroke-opacity:1"
         sodipodi:nodetypes="csccc" /><path
         d="M 30.866,6.124 C 29.056,4.651 23.567,0 16.381,0 L 16.343,0 16.325,0 16.268,0 C 9.081,0 3.593,4.651 1.789,6.118 0.335,7.289 0.015,8.529 0,9.345 c -0.021,1.135 0.431,2.147 1.343,2.989 2.508,2.426 7.816,6.573 14.861,6.641 0.034,0.002 0.069,0.025 0.104,0.025 l 0.097,0 C 23.467,19 28.793,14.795 31.343,12.332 32.218,11.525 32.67,10.49 32.649,9.353 32.627,8.199 31.994,7.03 30.866,6.124 Z"
         id="path3429"
         inkscape:connector-curvature="0"
         sodipodi:nodetypes="csccsccccssccc"
         style="fill:none;stroke:#000000;stroke-width:0.85937756;stroke-miterlimit:4;stroke-dasharray:none;stroke-opacity:1" /></g></g></svg>