<?xml version="1.0" encoding="UTF-8" standalone="no"?>
<svg
   xmlns:dc="http://purl.org/dc/elements/1.1/"
   xmlns:cc="http://creativecommons.org/ns#"
   xmlns:rdf="http://www.w3.org/1999/02/22-rdf-syntax-ns#"
   xmlns:svg="http://www.w3.org/2000/svg"
   xmlns="http://www.w3.org/2000/svg"
   xmlns:xlink="http://www.w3.org/1999/xlink"
   xmlns:sodipodi="http://sodipodi.sourceforge.net/DTD/sodipodi-0.dtd"
   xmlns:inkscape="http://www.inkscape.org/namespaces/inkscape"
   viewBox="0 0 175.14981 41.329239"
   id="svg4299"
   version="1.1"
   inkscape:version="0.92.2 (unknown)"
   sodipodi:docname="high_sensitive_sound.svg">
  <metadata
     id="metadata4320">
    <rdf:RDF>
      <cc:Work
         rdf:about="">
        <dc:format>image/svg+xml</dc:format>
        <dc:type
           rdf:resource="http://purl.org/dc/dcmitype/StillImage" />
        <dc:title></dc:title>
      </cc:Work>
    </rdf:RDF>
  </metadata>
  <defs
     id="defs4318">
    <linearGradient
       inkscape:collect="always"
       id="linearGradient938-7">
      <stop
         style="stop-color:#0000ff;stop-opacity:1;"
         offset="0"
         id="stop934" />
      <stop
         style="stop-color:#ff0000;stop-opacity:1"
         offset="1"
         id="stop936" />
    </linearGradient>
    <linearGradient
       inkscape:collect="always"
       xlink:href="#linearGradient938-7"
       id="linearGradient940"
       x1="1.6949161"
       y1="38.110168"
       x2="81.694916"
       y2="38.110168"
       gradientUnits="userSpaceOnUse"
       gradientTransform="matrix(1.875,0,0,0.8417598,-1.4830515,39.555842)" />
  </defs>
  <sodipodi:namedview
     pagecolor="#ffffff"
     bordercolor="#666666"
     borderopacity="1"
     objecttolerance="10"
     gridtolerance="10"
     guidetolerance="10"
     inkscape:pageopacity="0"
     inkscape:pageshadow="2"
     inkscape:window-width="1920"
     inkscape:window-height="1022"
     id="namedview4316"
     showgrid="true"
     fit-margin-top="5"
     fit-margin-left="5"
     fit-margin-right="5"
     fit-margin-bottom="5"
     inkscape:zoom="4.72"
     inkscape:cx="96.888544"
     inkscape:cy="45.057183"
     inkscape:window-x="0"
     inkscape:window-y="34"
     inkscape:window-maximized="1"
     inkscape:current-layer="g4308"
     showguides="false"
     inkscape:snap-grids="true">
    <inkscape:grid
       type="xygrid"
       id="grid886"
       originx="12.53583"
       originy="45.118648" />
  </sodipodi:namedview>
  <g
     id="g4303"
     transform="translate(10.84091,-37.899574)">
    <title
       id="title4305">background</title>
    <rect
       id="canvas_background"
       height="402"
       width="582"
       y="-1"
       x="-1"
       style="fill:none" />
  </g>
  <g
     id="g4308"
     transform="translate(10.84091,-37.899574)">
    <title
       id="title4310">Layer 1</title>
    <rect
       style="opacity:1;fill:url(#linearGradient940);fill-opacity:1;stroke:none;stroke-width:0.62815195;stroke-linecap:butt;stroke-miterlimit:4;stroke-dasharray:none;stroke-opacity:1"
       id="rect890"
       width="150"
       height="5.1186452"
       x="1.6949161"
       y="69.110168"
       rx="2.8125" />
    <path
       style="opacity:1;fill:#999999;fill-opacity:1;stroke:none;stroke-width:0.4235462;stroke-linecap:butt;stroke-miterlimit:4;stroke-dasharray:none;stroke-opacity:1"
       d="m 124.26139,55.610163 c 0,6.94493 -6.06647,11.425097 -12.56647,16.500002 -6.5,-5.074905 -12.58334,-9.555072 -12.58334,-16.500002 0,-6.944928 5.62998,-12.574905 12.57491,-12.574905 6.94493,0 12.5749,5.629977 12.5749,12.574905 z"
       id="path880"
       inkscape:connector-curvature="0"
       sodipodi:nodetypes="scsss" />
    <g
       id="g4892"
       transform="translate(-23.011489,38.643121)">
      <path
         sodipodi:nodetypes="sccccsscss"
         style="fill:none;stroke:#000000;stroke-width:0.5;stroke-miterlimit:4;stroke-dasharray:none"
         inkscape:connector-curvature="0"
         d="m 133.6589,26.602738 c -2.66002,0 -2.93037,-2.554885 -2.93234,-2.582397 v -0.01769 l -0.0651,-9.909016 v -0.01769 c 0.0118,-0.0511 0.98665,-5.1608624 5.60617,-5.1608624 4.61952,0 5.36148,5.1195914 5.3674,5.1706894 0.006,0.0511 0.57226,4.066194 -3.17703,6.16906 -1.84307,1.041605 -1.99304,3.384235 -1.99501,3.399958 -0.002,0.01572 -0.13419,2.947942 -2.80407,2.947942 z"
         id="svg_1" />
      <path
         sodipodi:nodetypes="csscccscc"
         style="fill:none;stroke:#000000;stroke-width:0.5;stroke-miterlimit:4;stroke-dasharray:none"
         inkscape:connector-curvature="0"
         d="m 133.38263,19.606288 c 0.15567,-7.56e-4 2.10552,-0.13364 2.10552,-1.906336 0,-1.772696 -2.00488,-1.802175 -2.08578,-1.802175 h -0.19734 V 14.11329 c 0.005,-0.630408 0.24818,-1.235828 0.6808,-1.69605 0.53674,-0.554213 1.33987,-0.837215 2.38375,-0.837215 0.97482,0 1.72862,0.279072 2.23971,0.83132 0.78932,0.843111 0.68869,2.055698 0.68869,2.055698"
         id="svg_2" />
    </g>
  </g>
</svg>
