<svg width="80" height="80" xmlns="http://www.w3.org/2000/svg">

 <g>
  <title>background</title>
  <rect fill="none" id="canvas_background" height="82" width="82" y="-1" x="-1"/>
 </g>
 <g>
  <title>Layer 1</title>
  <ellipse ry="40" rx="40" id="svg_12" cy="40" cx="40.000589" stroke-width="0" stroke="null" fill="#72767b"/>
  <g id="svg_10">
   <path fill="#ffffff" stroke-width="0" id="svg_3" d="m56.891407,64.648697l-36.999998,0l0,-44.000019l28.999998,0c0.551998,0 1,0.448 1,1s-0.448002,1 -1,1l-26.999998,0l0,40.000015l32.999998,0l0,-22.000023c0,-0.551998 0.448002,-1 1,-1s1,0.448002 1,1l0,24.000027z"/>
   <path fill="#ffffff" stroke-width="0" id="svg_5" d="m41.891407,33.64867"/>
   <path fill="#ffffff" stroke-width="0" id="svg_7" d="m41.528404,44.011677c-0.259995,0 -0.515999,-0.101006 -0.707996,-0.293007c-0.304001,-0.303993 -0.380001,-0.768997 -0.188,-1.153999l2.827999,-5.656998c0.048,-0.096001 0.111,-0.183998 0.188,-0.260002l19.092999,-19.091991c0.593002,-0.594 1.316006,-0.907 2.089001,-0.907c1.213005,0 2.354004,0.784 2.837006,1.950001c0.460991,1.114 0.205994,2.309998 -0.683006,3.198997l-19.091999,19.091993c-0.076,0.076 -0.163998,0.139 -0.259998,0.188l-5.657001,2.829002c-0.142002,0.070999 -0.295002,0.105003 -0.447002,0.105003zm3.650002,-6.065002l-1.414001,2.828999l2.829002,-1.415001l18.977005,-18.976994c0.314995,-0.314999 0.398994,-0.657999 0.25,-1.019999c-0.170006,-0.407 -0.595001,-0.715 -0.990005,-0.715c-0.235001,0 -0.461998,0.108002 -0.674995,0.321001l-18.977005,18.976994z"/>
   <path stroke="#198e8e" fill="#edf2f2" stroke-width="0" id="svg_9" d="m63.448406,24.919683c-0.256001,0 -0.512001,-0.098 -0.708,-0.293001l-2.827999,-2.829004c-0.389999,-0.390999 -0.389999,-1.024 0,-1.414999c0.390999,-0.389997 1.023998,-0.389997 1.415001,0l2.828003,2.829c0.389999,0.390999 0.389999,1.024 0,1.415003c-0.195004,0.196001 -0.451004,0.293001 -0.707005,0.293001z"/>
  </g>
 </g>
</svg>
