<?xml version="1.0" encoding="UTF-8" standalone="no"?>
<svg
   xmlns:dc="http://purl.org/dc/elements/1.1/"
   xmlns:cc="http://creativecommons.org/ns#"
   xmlns:rdf="http://www.w3.org/1999/02/22-rdf-syntax-ns#"
   xmlns:svg="http://www.w3.org/2000/svg"
   xmlns="http://www.w3.org/2000/svg"
   xmlns:sodipodi="http://sodipodi.sourceforge.net/DTD/sodipodi-0.dtd"
   xmlns:inkscape="http://www.inkscape.org/namespaces/inkscape"
   viewBox="0 0 80 80"
   version="1.1"
   id="svg86"
   sodipodi:docname="infosheet.svg"
   inkscape:version="0.92.2 (unknown)">
  <metadata
     id="metadata92">
    <rdf:RDF>
      <cc:Work
         rdf:about="">
        <dc:format>image/svg+xml</dc:format>
        <dc:type
           rdf:resource="http://purl.org/dc/dcmitype/StillImage" />
        <dc:title></dc:title>
      </cc:Work>
    </rdf:RDF>
  </metadata>
  <defs
     id="defs90" />
  <sodipodi:namedview
     pagecolor="#ffffff"
     bordercolor="#666666"
     borderopacity="1"
     objecttolerance="10"
     gridtolerance="10"
     guidetolerance="10"
     inkscape:pageopacity="0"
     inkscape:pageshadow="2"
     inkscape:window-width="1600"
     inkscape:window-height="842"
     id="namedview88"
     showgrid="false"
     inkscape:zoom="8.2375"
     inkscape:cx="40"
     inkscape:cy="40"
     inkscape:window-x="0"
     inkscape:window-y="34"
     inkscape:window-maximized="1"
     inkscape:current-layer="g84" />
  <g
     id="g74">
    <title
       id="title71">background</title>
    <rect
       fill="none"
       id="canvas_background"
       height="82"
       width="82"
       y="-1"
       x="-1" />
  </g>
  <g
     id="g84">
    <title
       id="title76">Layer 1</title>
    <g
       id="svg_10"
       style="fill:#000000">
      <path
         fill="#ffffff"
         stroke-opacity="0"
         stroke="#ede3e3"
         id="svg_3"
         d="m64,64l-48,0l0,-48l48,0l0,48zm-46,-2l44,0l0,-44l-44,0l0,44z"
         style="fill:#000000" />
      <rect
         fill="#ffffff"
         stroke-opacity="0"
         stroke="#ede3e3"
         id="svg_5"
         y="50"
         x="17"
         width="46"
         height="2"
         style="fill:#000000" />
      <path
         fill="#ffffff"
         stroke-opacity="0"
         stroke="#ede3e3"
         id="svg_7"
         d="m35,34l-6,0c-2.206001,0 -4,-1.793999 -4,-4c0,-2.323 2.021999,-4.202 4.352001,-3.984001c0.822998,-2.378998 3.054996,-4.015999 5.647999,-4.015999c3.308998,0 6,2.691 6,6s-2.691002,6 -6,6zm-6,-6c-1.103001,0 -2,0.896999 -2,2s0.896999,2 2,2l6,0c2.206001,0 4,-1.793999 4,-4s-1.793999,-4 -4,-4c-1.966,0 -3.621,1.416 -3.932999,3.367001l-0.196001,1.222l-1.153,-0.448002c-0.240999,-0.093998 -0.482,-0.140999 -0.718,-0.140999z"
         style="fill:#000000" />
      <path
         fill="#ffffff"
         stroke-opacity="0"
         stroke="#ede3e3"
         id="svg_9"
         d="m59.105,51.446999l-7.072998,-14.145996c-0.401001,-0.802002 -1.208,-1.301003 -2.105003,-1.301003c-0.834,0 -1.612999,0.447998 -2.034,1.167999l-6.028999,10.335999c-0.173996,0.298004 -0.488998,0.484001 -0.833,0.495003c-0.339996,0.028 -0.669998,-0.157001 -0.862,-0.443001c-0.037998,-0.056 -3.770996,-5.556 -8.168999,-5.556c-3.546,0 -7.028999,6.764999 -8.070999,9.372002l-1.857,-0.743c0.434999,-1.088001 4.41,-10.629002 9.927999,-10.629002c4.014999,0 7.335999,3.327999 8.889999,5.204002l5.275002,-9.044003c0.777,-1.333 2.218998,-2.16 3.760998,-2.16c1.66,0 3.152,0.922001 3.895,2.406998l7.073002,14.146004l-1.789001,0.893997z"
         style="fill:#000000" />
    </g>
  </g>
</svg>
